<?xml version="1.0" encoding="UTF-8" standalone="no"?>
<!-- Generator: Adobe Illustrator 19.0.0, SVG Export Plug-In . SVG Version: 6.00 Build 0)  -->

<svg
   xmlns:dc="http://purl.org/dc/elements/1.1/"
   xmlns:cc="http://creativecommons.org/ns#"
   xmlns:rdf="http://www.w3.org/1999/02/22-rdf-syntax-ns#"
   xmlns:svg="http://www.w3.org/2000/svg"
   xmlns="http://www.w3.org/2000/svg"
   xmlns:sodipodi="http://sodipodi.sourceforge.net/DTD/sodipodi-0.dtd"
   xmlns:inkscape="http://www.inkscape.org/namespaces/inkscape"
   version="1.1"
   id="Layer_1"
   x="0px"
   y="0px"
   viewBox="-1.9 0 496.158 496.158"
   xml:space="preserve"
   sodipodi:docname="no_connection.svg"
   inkscape:version="0.92.2 5c3e80d, 2017-08-06"
   width="496.15799"
   height="496.15799"><metadata
     id="metadata55"><rdf:RDF><cc:Work
         rdf:about=""><dc:format>image/svg+xml</dc:format><dc:type
           rdf:resource="http://purl.org/dc/dcmitype/StillImage" /><dc:title /></cc:Work></rdf:RDF></metadata><defs
     id="defs53" /><sodipodi:namedview
     pagecolor="#ffffff"
     bordercolor="#666666"
     borderopacity="1"
     objecttolerance="10"
     gridtolerance="10"
     guidetolerance="10"
     inkscape:pageopacity="0"
     inkscape:pageshadow="2"
     inkscape:window-width="1366"
     inkscape:window-height="748"
     id="namedview51"
     showgrid="false"
     inkscape:zoom="0.47565494"
     inkscape:cx="-253.31627"
     inkscape:cy="248.07899"
     inkscape:window-x="0"
     inkscape:window-y="0"
     inkscape:window-maximized="1"
     inkscape:current-layer="Layer_1"
     inkscape:showpageshadow="true"
     showborder="true"
     viewbox-x="-1.9" /><path
     inkscape:connector-curvature="0"
     style="fill:#069ed1;fill-opacity:0.48518518"
     d="M -4.6990234e-6,248.08498 C -4.6990234e-6,111.06399 111.06999,0.00299675 248.07699,0.00299675 c 137.011,0 248.081,111.05999325 248.081,248.08198325 0,137.00201 -111.07,248.07001 -248.081,248.07001 -137.007,0 -248.0769946990235,-111.068 -248.0769946990234,-248.07001 z"
     id="path2" /><g
     id="g14"
     style="fill:#ffffff;fill-opacity:1"
     transform="translate(-0.00100525,2.7885007)"><path
       style="fill:#ffffff;fill-opacity:1"
       d="m 172.127,289.129 c 20.289,-23.301 47.264,-36.133 75.954,-36.133 28.69,0 55.663,12.832 75.953,36.133 0,10e-4 0.004,0.004 0.004,0.006 l 15.973,-18.342 c -0.002,-0.004 -0.005,-0.005 -0.006,-0.008 -24.554,-28.197 -57.201,-43.729 -91.924,-43.729 -34.725,0 -67.37,15.531 -91.925,43.729 -0.003,0.003 -0.005,0.007 -0.009,0.009 l 15.973,18.343 c 0.002,-0.002 0.004,-0.006 0.007,-0.008 z"
       id="path6"
       inkscape:connector-curvature="0" /><path
       style="fill:#ffffff;fill-opacity:1"
       d="m 138.56,248.415 c 29.255,-33.596 68.149,-52.098 109.519,-52.098 41.371,0 80.266,18.501 109.521,52.098 10e-4,0.002 0.002,0.005 0.005,0.006 l 15.971,-18.34 c -0.001,-0.004 -0.004,-0.006 -0.005,-0.008 -33.521,-38.495 -78.087,-59.696 -125.491,-59.696 -47.402,0 -91.969,21.201 -125.49,59.696 -0.002,0.003 -0.004,0.004 -0.006,0.008 l 15.971,18.342 c 0.002,-0.003 0.003,-0.006 0.005,-0.008 z"
       id="path8"
       inkscape:connector-curvature="0" /><path
       style="fill:#ffffff;fill-opacity:1"
       d="m 105.308,208.063 c 38.137,-43.797 88.84,-67.917 142.771,-67.917 53.933,0 104.636,24.12 142.772,67.917 10e-4,0.001 0.003,0.005 0.003,0.005 l 15.974,-18.342 c -0.002,-0.001 -0.004,-0.004 -0.005,-0.006 -42.403,-48.696 -98.779,-75.514 -158.744,-75.514 -59.964,0 -116.339,26.817 -158.741,75.514 -0.002,0.002 -0.004,0.005 -0.006,0.007 l 15.973,18.342 c -0.001,0 10e-4,-0.005 0.003,-0.006 z"
       id="path10"
       inkscape:connector-curvature="0" /></g><path
     style="fill:#ffffff;fill-opacity:1"
     d="m 257.24729,332.55336 22.961,-26.653 c 2.504,-2.906 2.176,-7.293 -0.731,-9.797 -2.905,-2.503 -7.292,-2.18 -9.797,0.729 l -21.601,25.077 -21.601,-25.077 c -2.504,-2.909 -6.892,-3.234 -9.798,-0.729 -2.908,2.504 -3.234,6.891 -0.729,9.797 l 22.958,26.653 -22.958,26.651 c -2.505,2.907 -2.179,7.295 0.729,9.799 1.311,1.13 2.925,1.684 4.531,1.684 1.951,0 3.893,-0.818 5.267,-2.414 l 21.601,-25.075 21.601,25.075 c 1.373,1.597 3.313,2.414 5.267,2.414 1.604,0 3.219,-0.554 4.53,-1.684 2.907,-2.504 3.235,-6.892 0.731,-9.799 z"
     id="path18"
     inkscape:connector-curvature="0" /></svg>